<svg xmlns="http://www.w3.org/2000/svg" width="48" height="48" viewBox="0 0 48 48"><path d="M43.472,33.542a9.93,9.93,0,0,1-9.93,9.93H14.458a9.93,9.93,0,0,1-9.93-9.93V14.457a9.93,9.93,0,0,1,9.93-9.93H33.542a9.93,9.93,0,0,1,9.93,9.93V33.542ZM48,14.457A14.458,14.458,0,0,0,33.54,0H14.46A14.457,14.457,0,0,0,0,14.457V33.542A14.46,14.46,0,0,0,14.46,48H33.54A14.46,14.46,0,0,0,48,33.54ZM24.081,31.9a7.593,7.593,0,1,1,7.593-7.593A7.6,7.6,0,0,1,24.081,31.9Zm0-19.446A11.853,11.853,0,1,0,35.936,24.309,11.867,11.867,0,0,0,24.081,12.456ZM36.627,8.837a2.822,2.822,0,1,0,2.822,2.822,2.822,2.822,0,0,0-2.822-2.822Z" fill="#485922"/></svg>