<svg xmlns="http://www.w3.org/2000/svg" width="48" height="48" viewBox="0 0 48 48">
  <path id="Path_7" data-name="Path 7" d="M48,23.383A23.607,23.607,0,0,1,13.046,43.857L0,48,4.253,35.452A23.144,23.144,0,0,1,.873,23.381a23.564,23.564,0,0,1,47.127,0ZM24.433,3.728A19.756,19.756,0,0,0,4.624,23.387,19.446,19.446,0,0,0,8.4,34.91l-2.473,7.3,7.61-2.418A19.833,19.833,0,0,0,44.245,23.383,19.755,19.755,0,0,0,24.433,3.728Zm11.9,25.04c-.147-.236-.532-.38-1.108-.668s-3.418-1.673-3.946-1.861-.917-.29-1.3.285-1.489,1.864-1.828,2.249-.673.432-1.251.149a15.925,15.925,0,0,1-4.647-2.844,17.243,17.243,0,0,1-3.212-3.969c-.34-.573-.034-.883.252-1.168.258-.258.578-.67.867-1.006a3.821,3.821,0,0,0,.578-.953,1.067,1.067,0,0,0-.049-1.006c-.144-.288-1.3-3.105-1.781-4.253s-.961-.956-1.3-.956-.722-.047-1.107-.047a2.114,2.114,0,0,0-1.539.714,6.414,6.414,0,0,0-2.021,4.78c0,2.824,2.068,5.546,2.357,5.927s4,6.358,9.869,8.652,5.874,1.528,6.932,1.431S35.519,32.838,36,31.5A4.762,4.762,0,0,0,36.335,28.768Z" fill="#485922"/>
</svg>
